<svg width="13" height="16" viewBox="0 0 13 16" fill="none" xmlns="http://www.w3.org/2000/svg">
<path d="M12.5281 5.4C12.4 5.15313 12.1438 5 11.8656 5H6.97177L8.56056 1.02813C8.65334 0.797656 8.625 0.535 8.48537 0.32875C8.34574 0.1225 8.08742 0 7.86554 0H2.36542C1.98947 0 1.67197 0.278313 1.62228 0.65125L0.622254 8.15125C0.592944 8.36562 0.65838 8.58125 0.800946 8.74375C0.943511 8.90625 1.14945 9 1.3654 9H5.93737L4.63172 15.0656C4.55653 15.4163 4.74013 15.7706 5.06923 15.9122C5.16548 15.9812 5.26548 16 5.36549 16C5.60671 16 5.84112 15.8828 5.98456 15.6737L12.4847 6.17375C12.6406 5.94375 12.6594 5.64687 12.5281 5.4Z" fill="#929499"/>
</svg>
