<svg width="18" height="20" viewBox="0 0 18 20" fill="none" xmlns="http://www.w3.org/2000/svg">
<path fill-rule="evenodd" clip-rule="evenodd" d="M9 2C5.66878 2 2.96875 4.70004 2.96875 8.03125V13.2816C2.96875 13.3971 2.94874 13.5117 2.90962 13.6204L2.5479 14.625H15.4521L15.0904 13.6204C15.0513 13.5117 15.0312 13.3971 15.0312 13.2816V8.03125C15.0312 4.70004 12.3312 2 9 2ZM0.968749 8.03125C0.968749 3.59547 4.56421 0 9 0C13.4358 0 17.0312 3.59547 17.0312 8.03125V13.1071L17.8159 15.2862C17.9262 15.5926 17.8804 15.9336 17.6932 16.2C17.5059 16.4664 17.2007 16.625 16.875 16.625H1.125C0.799345 16.625 0.494088 16.4664 0.30684 16.2C0.119592 15.9336 0.0738077 15.5926 0.184129 15.2862L0.968749 13.1071V8.03125Z" fill="#9098B1"/>
<path fill-rule="evenodd" clip-rule="evenodd" d="M5.625 14.625C6.17728 14.625 6.625 15.0727 6.625 15.625C6.625 16.9368 7.68816 18 9 18C10.3118 18 11.375 16.9368 11.375 15.625C11.375 15.0727 11.8227 14.625 12.375 14.625C12.9273 14.625 13.375 15.0727 13.375 15.625C13.375 18.0414 11.4164 20 9 20C6.58359 20 4.625 18.0414 4.625 15.625C4.625 15.0727 5.07272 14.625 5.625 14.625Z" fill="#9098B1"/>
</svg>
