<svg width="20" height="20" viewBox="0 0 20 20" fill="none" xmlns="http://www.w3.org/2000/svg">
<path fill-rule="evenodd" clip-rule="evenodd" d="M10 2.00061C8.3971 2.00061 7.09766 3.30005 7.09766 4.90299C7.09766 6.50593 8.3971 7.80537 10 7.80537C11.603 7.80537 12.9024 6.50593 12.9024 4.90299C12.9024 3.30005 11.603 2.00061 10 2.00061ZM5.09766 4.90299C5.09766 2.19548 7.29253 0.000610352 10 0.000610352C12.7075 0.000610352 14.9024 2.19548 14.9024 4.90299C14.9024 7.6105 12.7075 9.80537 10 9.80537C7.29253 9.80537 5.09766 7.6105 5.09766 4.90299Z" fill="#9098B1"/>
<path fill-rule="evenodd" clip-rule="evenodd" d="M7.51784 13.3905C4.47035 13.3905 2 15.8609 2 18.9083V18.9995C2 19.5518 1.55228 19.9995 1 19.9995C0.447715 19.9995 0 19.5518 0 18.9995V18.9083C0 14.7563 3.36578 11.3905 7.51784 11.3905H12.4822C16.6342 11.3905 20 14.7563 20 18.9083V18.9995C20 19.5518 19.5523 19.9995 19 19.9995C18.4477 19.9995 18 19.5518 18 18.9995V18.9083C18 15.8609 15.5296 13.3905 12.4822 13.3905H7.51784Z" fill="#9098B1"/>
</svg>
