<svg width="22" height="18" viewBox="0 0 22 18" fill="none" xmlns="http://www.w3.org/2000/svg">
<path d="M19.9375 2.57143H11.6875L8.9375 0H2.0625C0.923828 0 0 0.863839 0 1.92857V16.0714C0 17.1362 0.923828 18 2.0625 18H19.9375C21.0762 18 22 17.1362 22 16.0714V4.5C22 3.43527 21.0762 2.57143 19.9375 2.57143ZM6.83203 9.60268C7.03398 9.41384 7.29609 9.32143 7.5625 9.32143C7.82891 9.32143 8.09016 9.41561 8.29168 9.60392L9.96875 11.1737V6.75C9.96875 6.21964 10.4328 5.78571 11 5.78571C11.5672 5.78571 12.0312 6.21763 12.0312 6.75V11.1737L13.7083 9.60549C14.1112 9.22882 14.7636 9.22882 15.1667 9.60549C15.5697 9.98217 15.5695 10.5923 15.1667 10.9692L11.7292 14.1834C11.3263 14.5601 10.6739 14.5601 10.2708 14.1834L6.83332 10.9692C6.43242 10.5911 6.43242 9.98036 6.83203 9.60268Z" fill="#929499"/>
</svg>
